<?xml version="1.0" standalone="no"?>
<!DOCTYPE svg PUBLIC "-//W3C//DTD SVG 20010904//EN"
 "http://www.w3.org/TR/2001/REC-SVG-20010904/DTD/svg10.dtd">
<svg version="1.0" xmlns="http://www.w3.org/2000/svg"
 width="512.000000pt" height="512.000000pt" viewBox="0 0 512.000000 512.000000"
 preserveAspectRatio="xMidYMid meet">
<metadata>
Created by potrace 1.11, written by Peter Selinger 2001-2013
</metadata>
<g transform="translate(0.000000,512.000000) scale(0.100000,-0.100000)"
fill="#000000" stroke="none">
<path d="M2303 5055 c-202 -154 -307 -361 -316 -628 l-4 -91 -114 -22 c-219
-43 -415 -99 -485 -139 -109 -64 -208 -186 -244 -303 -25 -80 -27 -216 -4
-293 18 -60 68 -164 84 -174 20 -13 9 -23 -52 -45 -236 -84 -414 -236 -512
-435 -65 -131 -80 -196 -80 -345 0 -140 20 -234 74 -340 17 -33 30 -63 30 -68
0 -4 -21 -18 -47 -31 -216 -104 -449 -352 -542 -575 -148 -356 -110 -728 109
-1054 58 -87 175 -211 260 -275 129 -98 305 -176 480 -212 172 -36 461 -29
780 21 267 41 437 81 711 165 l95 29 55 -24 c65 -28 214 -77 326 -105 195 -50
471 -84 823 -102 282 -14 473 -7 589 21 367 89 670 389 766 758 88 335 -10
706 -254 964 l-64 68 12 70 c14 85 14 274 1 357 -27 166 -96 338 -191 480 -64
94 -214 245 -292 293 -53 32 -57 37 -52 65 14 76 17 247 6 311 -58 329 -323
604 -661 684 -30 8 -58 16 -62 20 -4 3 -1 27 7 54 41 134 -8 311 -112 407 -63
58 -147 93 -325 139 -86 22 -178 47 -204 56 -85 28 -214 92 -277 138 -60 42
-192 169 -209 201 -14 24 -28 18 -105 -40z m-282 -1511 c173 -51 317 -213 375
-424 26 -91 26 -319 1 -410 -58 -211 -210 -381 -381 -426 -99 -27 -210 -9
-309 49 -110 65 -220 223 -263 377 -26 91 -26 318 0 410 30 109 80 201 151
277 128 139 277 191 426 147z m1415 2 c174 -46 315 -199 374 -406 31 -107 38
-272 16 -381 -90 -443 -486 -629 -775 -365 -149 137 -233 395 -202 617 24 171
81 298 179 401 117 123 266 172 408 134z m-571 -2136 c282 -27 521 -117 670
-253 l59 -54 -41 -26 c-251 -159 -596 -235 -968 -216 -166 9 -287 32 -445 85
-124 41 -320 136 -320 155 0 4 21 27 46 51 206 194 599 295 999 258z"/>
<path d="M1911 3258 c-20 -5 -59 -35 -96 -71 -52 -53 -65 -73 -84 -134 -46
-145 -15 -311 77 -406 58 -61 106 -81 187 -82 63 0 76 4 121 32 185 119 213
434 52 595 -71 71 -161 94 -257 66z"/>
<path d="M3191 3258 c-20 -5 -59 -35 -96 -71 -52 -53 -65 -73 -84 -134 -46
-145 -15 -311 77 -406 58 -61 106 -81 187 -82 63 0 76 4 121 32 185 119 213
434 52 595 -71 71 -161 94 -257 66z"/>
</g>
</svg>
